<svg width="512" height="512" viewBox="0 0 512 512" fill="none" xmlns="http://www.w3.org/2000/svg">
<path d="M379.311 420.751C413.096 377.997 345.311 301.284 369.08 250.465H142.92C166.689 301.284 98.904 377.997 132.689 420.751H379.311Z" fill="#3E4359"/>
<path d="M256 63.042C272.872 63.042 286.549 50.6085 286.549 35.271C286.549 19.9335 272.872 7.5 256 7.5C239.128 7.5 225.451 19.9335 225.451 35.271C225.451 50.6085 239.128 63.042 256 63.042Z" fill="#4D5268"/>
<path d="M256 44.93C238.946 44.93 223.009 49.992 209.455 58.333C205.847 60.553 205.268 65.569 208.264 68.565L221.185 81.486C227.941 88.241 228.019 99.144 221.42 105.995C214.615 113.06 203.049 112.846 196.112 105.91L185.019 94.817C181.844 91.642 176.458 92.507 174.491 96.543C169.479 106.831 166.689 117.856 166.689 128.829C166.689 170.387 206.675 195.424 256 195.424C305.325 195.424 345.311 170.387 345.311 128.829C345.311 87.272 305.325 44.93 256 44.93V44.93Z" fill="#212432"/>
<path d="M256 195.425C305.011 195.425 344.794 170.703 345.299 129.619H166.701C167.205 170.703 206.989 195.425 256 195.425V195.425Z" fill="#505776"/>
<path d="M142.92 250.465C147.251 259.725 148.533 269.848 147.953 280.465H364.047C363.467 269.848 364.749 259.725 369.08 250.465H142.92Z" fill="#212432"/>
<path d="M388.946 250.465H123.053C112.186 250.465 103.378 241.656 103.378 230.79V228.232C103.378 217.366 112.187 208.557 123.053 208.557H388.946C399.812 208.557 408.621 217.366 408.621 228.232V230.79C408.622 241.656 399.813 250.465 388.946 250.465Z" fill="#505776"/>
<path d="M123.053 208.556C112.186 208.556 103.378 217.365 103.378 228.232V230.79C103.378 241.656 112.187 250.465 123.053 250.465H239.803C223.595 242.942 224.115 219.623 229.369 208.556H123.053Z" fill="#41465B"/>
<path d="M367.944 208.556H144.056C132.791 208.556 124.343 198.248 126.556 187.202C129.769 171.163 143.855 159.619 160.213 159.619H351.788C368.146 159.619 382.231 171.162 385.444 187.202C387.657 198.248 379.209 208.556 367.944 208.556V208.556Z" fill="#212432"/>
<path d="M400.886 458.721H111.114L107.077 441.451C104.604 430.873 112.633 420.751 123.497 420.751H388.503C399.367 420.751 407.395 430.873 404.923 441.451L400.886 458.721Z" fill="#505776"/>
<path d="M412.335 458.721H99.665C87.797 458.721 77.417 466.71 74.377 478.181L72.327 485.917C69.84 495.303 76.917 504.5 86.627 504.5H425.371C435.081 504.5 442.158 495.304 439.671 485.917L437.621 478.181C434.583 466.71 424.202 458.721 412.335 458.721V458.721Z" fill="#4D5268"/>
<path d="M229.851 458.721H99.665C87.797 458.721 77.417 466.709 74.377 478.181L72.327 485.917C69.84 495.303 76.917 504.5 86.627 504.5H241.393C227.143 495.535 224.849 473.975 229.851 458.721V458.721Z" fill="#212432"/>
<path d="M172.153 400.777C189.24 400.777 203.091 389.747 203.091 376.14C203.091 362.533 189.24 351.503 172.153 351.503C155.066 351.503 141.215 362.533 141.215 376.14C141.215 389.747 155.066 400.777 172.153 400.777Z" fill="#D8385E"/>
<path d="M339.846 400.777C356.933 400.777 370.784 389.747 370.784 376.14C370.784 362.533 356.933 351.503 339.846 351.503C322.759 351.503 308.908 362.533 308.908 376.14C308.908 389.747 322.759 400.777 339.846 400.777Z" fill="#D8385E"/>
<path d="M256 375.587C265.07 375.587 272.423 367.359 272.423 357.21C272.423 347.061 265.07 338.833 256 338.833C246.93 338.833 239.577 347.061 239.577 357.21C239.577 367.359 246.93 375.587 256 375.587Z" fill="#4E5660"/>
<path d="M177.325 353.909C181.468 353.909 184.825 350.551 184.825 346.409V334.409C184.825 330.267 181.468 326.909 177.325 326.909C173.182 326.909 169.825 330.267 169.825 334.409V346.409C169.825 350.551 173.182 353.909 177.325 353.909ZM446.923 483.997L444.873 476.261C440.966 461.518 427.586 451.222 412.335 451.222H410.341L412.226 443.159C415.481 429.236 406.113 415.631 392.174 413.534C402.041 389.816 392.82 360.697 383.843 332.394C375.522 306.157 366.94 279.086 374.14 257.966H388.947C403.931 257.966 416.123 245.775 416.123 230.791V228.232C416.123 213.954 405.051 202.22 391.044 201.145C393.208 196.369 393.856 191.002 392.799 185.729C388.898 166.255 371.649 152.12 351.789 152.12H348.671C357.217 129.447 352.02 103.568 338.115 82.509C335.833 79.052 331.178 78.101 327.723 80.383C324.267 82.665 323.315 87.318 325.597 90.775C337.822 109.29 342.375 132.716 332.265 152.12H179.735C171.388 136.101 173.094 117.304 180.649 101.056L190.807 111.214C200.607 121.014 217 121.393 226.822 111.198C236.204 101.456 236.054 85.748 226.487 76.183L214.407 64.102C227.217 56.462 241.572 52.43 256 52.43C272.118 52.43 287.968 57.399 301.834 66.8C305.265 69.124 309.927 68.229 312.251 64.8C314.575 61.371 313.68 56.708 310.252 54.384C304.629 50.572 298.718 47.394 292.611 44.843C293.554 41.741 294.05 38.52 294.05 35.27C294.05 15.822 276.98 0 256 0C235.02 0 217.95 15.822 217.95 35.271C217.95 38.524 218.446 41.747 219.391 44.852C214.631 46.837 209.991 49.198 205.524 51.947C197.786 56.709 196.539 67.45 202.96 73.869L215.882 86.791C219.708 90.617 219.77 96.898 216.019 100.794C212.126 104.835 205.379 104.574 201.415 100.609L190.322 89.516C183.513 82.707 171.968 84.601 167.749 93.261C158.852 111.523 156.079 132.883 163.33 152.121H160.212C140.352 152.121 123.104 166.256 119.202 185.73C118.146 191.003 118.793 196.369 120.957 201.145C106.949 202.22 95.878 213.953 95.878 228.232V230.791C95.878 245.775 108.069 257.966 123.054 257.966H137.861C145.061 279.086 136.479 306.157 128.158 332.394C119.182 360.697 109.96 389.816 119.827 413.534C105.909 415.628 96.514 429.21 99.775 443.159L101.66 451.222H99.666C84.415 451.222 71.035 461.518 67.128 476.262L65.078 483.998C61.33 498.142 71.984 512 86.628 512H134.266C138.409 512 141.766 508.642 141.766 504.5C141.766 500.358 138.409 497 134.266 497H86.628C81.84 497 78.351 492.47 79.577 487.838L81.627 480.103C83.793 471.93 91.21 466.221 99.665 466.221C101.117 466.221 409.811 466.224 412.335 466.221C420.79 466.221 428.207 471.929 430.373 480.102L432.423 487.837C433.648 492.465 430.163 496.999 425.372 496.999H170.527C166.384 496.999 163.027 500.357 163.027 504.499C163.027 508.641 166.384 511.999 170.527 511.999H425.372C440.005 512 450.673 498.152 446.923 483.997V483.997ZM256 15C268.71 15 279.05 24.093 279.05 35.271C279.05 36.941 278.819 38.571 278.371 40.151C271.054 38.36 263.557 37.431 256 37.431C248.469 37.431 240.963 38.358 233.63 40.156C233.182 38.574 232.95 36.944 232.95 35.271C232.95 24.093 243.29 15 256 15V15ZM133.909 188.676C136.412 176.185 147.473 167.12 160.212 167.12C183.808 167.121 334.358 167.12 351.788 167.12C364.526 167.12 375.588 176.186 378.091 188.676C379.375 195.084 374.47 201.056 367.945 201.056H144.056C137.521 201.056 132.627 195.074 133.909 188.676ZM123.054 242.965C116.34 242.965 110.878 237.503 110.878 230.79V228.231C110.878 221.518 116.34 216.056 123.054 216.056H388.947C395.661 216.056 401.123 221.518 401.123 228.231V230.79C401.123 237.503 395.661 242.965 388.947 242.965H123.054ZM142.456 336.928C150.966 310.096 159.721 282.47 153.507 257.965H358.494C352.28 282.469 361.035 310.096 369.545 336.928C378.86 366.297 387.665 394.109 375.435 413.251H136.566C124.336 394.108 133.141 366.297 142.456 336.928V336.928ZM397.62 439.744L394.937 451.221H117.063L114.38 439.744C113.006 433.864 117.471 428.251 123.497 428.251C123.619 428.251 389.785 428.252 388.503 428.251C394.541 428.251 398.991 433.877 397.62 439.744ZM256 383.087C269.191 383.087 279.923 371.479 279.923 357.21C279.923 342.941 269.192 331.333 256 331.333C242.809 331.333 232.077 342.941 232.077 357.21C232.077 371.478 242.808 383.087 256 383.087ZM256 346.333C260.92 346.333 264.923 351.212 264.923 357.21C264.923 363.207 260.92 368.087 256 368.087C251.08 368.087 247.077 363.208 247.077 357.21C247.077 351.212 251.08 346.333 256 346.333ZM334.675 353.909C338.818 353.909 342.175 350.551 342.175 346.409V334.409C342.175 330.267 338.818 326.909 334.675 326.909C330.532 326.909 327.175 330.267 327.175 334.409V346.409C327.175 350.551 330.532 353.909 334.675 353.909Z" fill="black"/>
</svg>
