<svg width="512" height="512" viewBox="0 0 512 512" fill="none" xmlns="http://www.w3.org/2000/svg">
<g clip-path="url(#clip0)">
<path d="M264.117 101.728C289.954 97.3001 307.309 72.7652 302.881 46.9284C298.452 21.0915 273.917 3.73655 248.081 8.16497C222.244 12.5934 204.889 37.1283 209.317 62.9651C213.746 88.802 238.28 106.157 264.117 101.728Z" fill="#4D5268"/>
<path d="M365.256 168.742C379.777 148.638 388.197 125.553 392.8 104.769C397.052 85.568 377.822 69.455 359.64 76.952C320.66 93.025 290.819 83.891 270.717 68.78C261.965 62.201 250.035 62.201 241.283 68.78C221.181 83.891 191.34 93.025 152.36 76.952C134.178 69.455 114.948 85.568 119.2 104.769C123.803 125.552 132.222 148.638 146.744 168.742H365.256Z" fill="#292D3E"/>
<path d="M388.743 410.462C371.792 367.647 369.08 258.235 369.08 220.465H142.92C142.92 258.235 140.208 367.646 123.257 410.462H388.743Z" fill="#33384E"/>
<path d="M172.435 375.159C189.464 375.159 203.269 364.165 203.269 350.604C203.269 337.043 189.464 326.049 172.435 326.049C155.406 326.049 141.601 337.043 141.601 350.604C141.601 364.165 155.406 375.159 172.435 375.159Z" fill="#D8385E"/>
<path d="M339.565 375.159C356.594 375.159 370.399 364.165 370.399 350.604C370.399 337.043 356.594 326.049 339.565 326.049C322.536 326.049 308.731 337.043 308.731 350.604C308.731 364.165 322.536 375.159 339.565 375.159Z" fill="#D8385E"/>
<path d="M369.494 250.465C369.188 238.354 369.08 227.986 369.08 220.465H142.92C142.92 227.986 142.812 238.354 142.506 250.465H369.494Z" fill="#292D3E"/>
<path d="M129.994 138.742C134.376 149.036 139.869 159.224 146.744 168.742H365.256C372.131 159.224 377.624 149.036 382.006 138.742H129.994Z" fill="#212432"/>
<path d="M370.79 220.465H141.21C130.663 220.465 121.364 213.548 118.329 203.447C113.134 186.153 126.084 168.742 144.142 168.742H367.858C385.916 168.742 398.865 186.152 393.671 203.447C390.636 213.549 381.337 220.465 370.79 220.465Z" fill="#4D5268"/>
<path d="M412.335 458.721H99.665C87.797 458.721 77.417 466.71 74.377 478.181L72.327 485.917C69.84 495.303 76.917 504.5 86.627 504.5H425.371C435.081 504.5 442.158 495.304 439.671 485.917L437.621 478.181C434.583 466.71 424.202 458.721 412.335 458.721V458.721Z" fill="#33384E"/>
<path d="M229.851 458.721H99.665C87.797 458.721 77.417 466.709 74.377 478.181L72.327 485.917C69.84 495.303 76.917 504.5 86.627 504.5H241.393C227.143 495.535 224.849 473.975 229.851 458.721V458.721Z" fill="#292D3E"/>
<path d="M409.761 458.721C432.128 453.503 434.06 410.461 390.853 410.461H121.146C77.939 410.461 79.871 453.503 102.238 458.721H409.761Z" fill="#4D5268"/>
<path d="M221.348 168.742H144.142C126.084 168.742 113.135 186.152 118.329 203.447C121.363 213.548 130.662 220.465 141.21 220.465H236.307C217.433 210.062 215.305 183.258 221.348 168.742V168.742Z" fill="#41465B"/>
<path d="M190.405 307.164C186.263 307.164 182.905 310.522 182.905 314.664V326.664C182.905 330.806 186.263 334.164 190.405 334.164C194.547 334.164 197.905 330.806 197.905 326.664V314.664C197.905 310.522 194.547 307.164 190.405 307.164ZM278.222 320.937C275.099 318.216 270.362 318.541 267.64 321.664C264.702 325.036 260.459 326.97 256 326.97C251.541 326.97 247.299 325.036 244.36 321.664C241.639 318.542 236.901 318.216 233.778 320.937C230.656 323.659 230.33 328.396 233.052 331.519C238.84 338.161 247.204 341.97 256 341.97C264.796 341.97 273.16 338.161 278.948 331.519C281.669 328.396 281.344 323.659 278.222 320.937ZM446.922 483.997L444.872 476.262C442.35 466.742 435.875 459.082 427.5 454.845C440.319 436.06 430.63 404.69 394.027 403.041C380.925 363.96 376.935 278.26 376.603 227.416C388.017 225.305 397.406 217.08 400.853 205.606C406.508 186.781 395.393 168.146 378.165 162.8C388.071 146.434 395.443 127.52 400.122 106.392C404.173 88.1 391.774 71.114 374.39 68.051C370.31 67.334 366.421 70.056 365.702 74.136C364.983 78.216 367.708 82.105 371.787 82.824C380.707 84.395 387.69 93.155 385.476 103.15C380.614 125.107 372.3 145.102 361.35 161.244H150.649C139.7 145.103 131.386 125.108 126.523 103.15C123.58 89.861 136.888 78.688 149.501 83.888C194.426 102.412 226.66 89.158 245.79 74.777C251.897 70.186 260.104 70.186 266.21 74.777C286.899 90.329 312.227 96.472 339.888 90.872C343.948 90.05 346.573 86.093 345.751 82.033C344.929 77.973 340.971 75.351 336.912 76.17C325.511 78.478 315.362 78.29 306.49 76.646C309.421 69.838 310.946 62.485 310.946 54.948C310.946 24.648 286.297 0 256 0C225.703 0 201.054 24.648 201.054 54.946C201.054 62.484 202.579 69.838 205.511 76.645C191.705 79.188 174.952 78.155 155.219 70.019C131.467 60.223 106.318 81.284 111.878 106.391C116.557 127.52 123.929 146.434 133.835 162.799C116.601 168.146 105.494 186.785 111.147 205.605C114.594 217.079 123.982 225.304 135.397 227.415C135.065 278.26 131.075 363.961 117.973 403.041C81.625 404.706 71.65 436.014 84.5 454.844C76.125 459.081 69.65 466.741 67.128 476.261L65.079 483.996C61.33 498.142 71.984 512 86.628 512H156.61C160.752 512 164.11 508.642 164.11 504.5C164.11 500.358 160.752 497 156.61 497H86.628C81.841 497 78.35 492.47 79.578 487.838L81.627 480.103C83.792 471.93 91.21 466.222 99.665 466.222C123.083 466.222 425.133 466.225 412.335 466.222C420.79 466.222 428.207 471.93 430.373 480.103L432.423 487.839C433.649 492.467 430.163 497.001 425.373 497.001H192.578C188.436 497.001 185.078 500.359 185.078 504.501C185.078 508.643 188.436 512.001 192.578 512.001H425.372C440.005 512 450.672 498.152 446.922 483.997V483.997ZM256 15C278.026 15 295.946 32.919 295.946 54.946C295.946 61.034 294.576 66.955 291.959 72.348C285.299 69.6 279.708 66.157 275.223 62.785C263.724 54.141 248.274 54.141 236.776 62.785C232.137 66.272 226.557 69.67 220.047 72.36C217.426 66.964 216.054 61.039 216.054 54.946C216.054 32.919 233.973 15 256 15ZM125.513 201.29C121.761 188.8 131.097 176.243 144.142 176.243C149.42 176.244 370.737 176.243 367.858 176.243C380.899 176.243 390.241 188.796 386.487 201.29C384.389 208.274 378.081 212.966 370.79 212.966H141.21C133.918 212.965 127.61 208.273 125.513 201.29V201.29ZM146.924 314.13C149.233 283.223 150.21 250.701 150.388 227.965H361.61C361.788 250.701 362.765 283.222 365.075 314.13C367.999 353.267 372.435 383.058 378.287 402.961H133.712C139.564 383.058 143.999 353.267 146.924 314.13ZM408.735 451.221H103.265C98.084 449.622 93.323 443.663 94.298 435.191C94.763 431.149 98.074 417.962 121.147 417.962C121.247 417.962 387.435 417.965 390.854 417.962C413.927 417.962 417.237 431.15 417.703 435.191C418.677 443.663 413.916 449.622 408.735 451.221V451.221ZM323.911 304.923C312.108 304.923 302.505 314.526 302.505 326.329C302.505 330.471 305.863 333.829 310.005 333.829C314.147 333.829 317.505 330.471 317.505 326.329C317.505 322.797 320.379 319.923 323.911 319.923C327.443 319.923 330.317 322.797 330.317 326.329C330.317 330.471 333.675 333.829 337.817 333.829C341.959 333.829 345.317 330.471 345.317 326.329C345.318 314.526 335.715 304.923 323.911 304.923Z" fill="black"/>
</g>
<defs>
<clipPath id="clip0">
<rect width="512" height="512" fill="white"/>
</clipPath>
</defs>
</svg>
