<svg id="Capa_1" enable-background="new 0 0 512 512" height="512" viewBox="0 0 512 512" width="512" xmlns="http://www.w3.org/2000/svg"><g><ellipse cx="256" cy="54.946" fill="#f2d98d" rx="47.446" ry="47.446" transform="matrix(.986 -.169 .169 .986 -5.603 44.034)"/><path d="m365.256 168.742c14.521-20.104 22.941-43.189 27.544-63.973 4.252-19.201-14.978-35.314-33.16-27.817-38.98 16.073-68.821 6.939-88.923-8.172-8.752-6.579-20.682-6.579-29.434 0-20.102 15.111-49.943 24.245-88.923 8.172-18.182-7.497-37.412 8.616-33.16 27.817 4.603 20.783 13.022 43.869 27.544 63.973z" fill="#daa985"/><path d="m388.743 410.462c-16.951-42.815-19.663-152.227-19.663-189.997h-226.16c0 37.77-2.712 147.181-19.663 189.997z" fill="#e7c7af"/><g><g fill="#fff"><ellipse cx="172.435" cy="350.604" rx="30.834" ry="24.555"/><ellipse cx="339.565" cy="350.604" rx="30.834" ry="24.555"/></g></g><path d="m369.494 250.465c-.306-12.111-.414-22.479-.414-30h-226.16c0 7.521-.108 17.889-.414 30z" fill="#daa985"/><path d="m129.994 138.742c4.382 10.294 9.875 20.482 16.75 30h218.512c6.875-9.518 12.368-19.706 16.75-30z" fill="#d2896f"/><path d="m370.79 220.465h-229.58c-10.547 0-19.846-6.917-22.881-17.018-5.195-17.294 7.755-34.705 25.813-34.705h223.716c18.058 0 31.007 17.41 25.813 34.705-3.035 10.102-12.334 17.018-22.881 17.018z" fill="#f2d98d"/><path d="m412.335 458.721h-312.67c-11.868 0-22.248 7.989-25.288 19.46l-2.05 7.736c-2.487 9.386 4.59 18.583 14.3 18.583h338.744c9.71 0 16.787-9.196 14.3-18.583l-2.05-7.736c-3.038-11.471-13.419-19.46-25.286-19.46z" fill="#e7c7af"/><path d="m229.851 458.721h-130.186c-11.868 0-22.248 7.988-25.288 19.46l-2.05 7.736c-2.487 9.386 4.59 18.583 14.3 18.583h154.766c-14.25-8.965-16.544-30.525-11.542-45.779z" fill="#daa985"/><path d="m409.761 458.721c22.367-5.218 24.299-48.26-18.908-48.26h-269.707c-43.207 0-41.275 43.042-18.908 48.26z" fill="#f2d98d"/><path d="m221.348 168.742h-77.206c-18.058 0-31.007 17.41-25.813 34.705 3.034 10.101 12.333 17.018 22.881 17.018h95.097c-18.874-10.403-21.002-37.207-14.959-51.723z" fill="#eec076"/><path d="m190.405 307.164c-4.142 0-7.5 3.358-7.5 7.5v12c0 4.142 3.358 7.5 7.5 7.5s7.5-3.358 7.5-7.5v-12c0-4.142-3.358-7.5-7.5-7.5zm87.817 13.773c-3.123-2.721-7.86-2.396-10.582.727-2.938 3.372-7.181 5.306-11.64 5.306s-8.701-1.934-11.64-5.306c-2.721-3.122-7.459-3.448-10.582-.727-3.122 2.722-3.448 7.459-.726 10.582 5.788 6.642 14.152 10.451 22.948 10.451s17.16-3.809 22.948-10.451c2.721-3.123 2.396-7.86-.726-10.582zm168.7 163.06-2.05-7.735c-2.522-9.52-8.997-17.18-17.372-21.417 12.819-18.785 3.13-50.155-33.473-51.804-13.102-39.081-17.092-124.781-17.424-175.625 11.414-2.111 20.803-10.336 24.25-21.81 5.655-18.825-5.46-37.46-22.688-42.806 9.906-16.366 17.278-35.28 21.957-56.408 4.051-18.292-8.348-35.278-25.732-38.341-4.08-.717-7.969 2.005-8.688 6.085s2.006 7.969 6.085 8.688c8.92 1.571 15.903 10.331 13.689 20.326-4.862 21.957-13.176 41.952-24.126 58.094h-210.701c-10.949-16.141-19.263-36.136-24.126-58.094-2.943-13.289 10.365-24.462 22.978-19.262 44.925 18.524 77.159 5.27 96.289-9.111 6.107-4.591 14.314-4.591 20.42 0 20.689 15.552 46.017 21.695 73.678 16.095 4.06-.822 6.685-4.779 5.863-8.839s-4.78-6.682-8.839-5.863c-11.401 2.308-21.55 2.12-30.422.476 2.931-6.808 4.456-14.161 4.456-21.698 0-30.3-24.649-54.948-54.946-54.948s-54.946 24.648-54.946 54.946c0 7.538 1.525 14.892 4.457 21.699-13.806 2.543-30.559 1.51-50.292-6.626-23.752-9.796-48.901 11.265-43.341 36.372 4.679 21.129 12.051 40.043 21.957 56.408-17.234 5.347-28.341 23.986-22.688 42.806 3.447 11.474 12.835 19.699 24.25 21.81-.332 50.845-4.322 136.546-17.424 175.626-36.348 1.665-46.323 32.973-33.473 51.803-8.375 4.237-14.85 11.897-17.372 21.417l-2.049 7.735c-3.749 14.146 6.905 28.004 21.549 28.004h69.982c4.142 0 7.5-3.358 7.5-7.5s-3.358-7.5-7.5-7.5h-69.982c-4.787 0-8.278-4.53-7.05-9.162l2.049-7.735c2.165-8.173 9.583-13.881 18.038-13.881 23.418 0 325.468.003 312.67 0 8.455 0 15.872 5.708 18.038 13.881l2.05 7.736c1.226 4.628-2.26 9.162-7.05 9.162h-232.795c-4.142 0-7.5 3.358-7.5 7.5s3.358 7.5 7.5 7.5h232.794c14.633-.001 25.3-13.849 21.55-28.004zm-190.922-468.997c22.026 0 39.946 17.919 39.946 39.946 0 6.088-1.37 12.009-3.987 17.402-6.66-2.748-12.251-6.191-16.736-9.563-11.499-8.644-26.949-8.644-38.447 0-4.639 3.487-10.219 6.885-16.729 9.575-2.621-5.396-3.993-11.321-3.993-17.414 0-22.027 17.919-39.946 39.946-39.946zm-130.487 186.29c-3.752-12.49 5.584-25.047 18.629-25.047 5.278.001 226.595 0 223.716 0 13.041 0 22.383 12.553 18.629 25.047-2.098 6.984-8.406 11.676-15.697 11.676h-229.58c-7.292-.001-13.6-4.693-15.697-11.676zm21.411 112.84c2.309-30.907 3.286-63.429 3.464-86.165h211.222c.178 22.736 1.155 55.257 3.465 86.165 2.924 39.137 7.36 68.928 13.212 88.831h-244.575c5.852-19.903 10.287-49.694 13.212-88.831zm261.811 137.091h-305.47c-5.181-1.599-9.942-7.558-8.967-16.03.465-4.042 3.776-17.229 26.849-17.229.1 0 266.288.003 269.707 0 23.073 0 26.383 13.188 26.849 17.229.974 8.472-3.787 14.431-8.968 16.03zm-84.824-146.298c-11.803 0-21.406 9.603-21.406 21.406 0 4.142 3.358 7.5 7.5 7.5s7.5-3.358 7.5-7.5c0-3.532 2.874-6.406 6.406-6.406s6.406 2.874 6.406 6.406c0 4.142 3.358 7.5 7.5 7.5s7.5-3.358 7.5-7.5c.001-11.803-9.602-21.406-21.406-21.406z"/></g></svg>