<svg id="Capa_1" enable-background="new 0 0 512 512" height="512" viewBox="0 0 512 512" width="512" xmlns="http://www.w3.org/2000/svg"><g><path d="m387.247 398.411c-16.76-47.097-32.647-145.327-32.647-177.691h-197.201c0 32.364-15.887 130.595-32.647 177.691z" fill="#e7c7af"/><ellipse cx="256" cy="73.69" fill="#daa985" rx="66.19" ry="66.189" transform="matrix(.16 -.987 .987 .16 142.255 314.58)"/><path d="m354.6 220.719h-197.201c0 7.181-.784 17.611-2.184 30h201.569c-1.4-12.389-2.184-22.818-2.184-30z" fill="#daa985"/><path d="m367.871 220.719h-223.743c-10.67 0-20.515-5.739-25.773-15.024-6.215-10.977-4.796-24.687 3.537-34.157 9.811-11.151 23.946-17.541 38.799-17.541h190.614c14.853 0 28.988 6.39 38.799 17.541 8.333 9.471 9.753 23.18 3.537 34.157-5.254 9.285-15.1 15.024-25.77 15.024z" fill="#f2d98d"/><path d="m230.829 153.997h-70.136c-14.853 0-28.988 6.39-38.799 17.541-8.333 9.47-9.753 23.18-3.538 34.157 5.257 9.285 15.103 15.024 25.773 15.024h103.694c-24.283-14.031-22.793-47.156-16.994-66.722z" fill="#eec076"/><path d="m411.758 458.721h-311.516l-5.727-17.095c-8.567-25.572 10.461-52.015 37.43-52.015h248.112c26.969 0 45.997 26.443 37.43 52.015z" fill="#f2d98d"/><path d="m412.335 458.721h-312.67c-11.868 0-22.248 7.988-25.288 19.46l-2.05 7.736c-2.487 9.386 4.59 18.583 14.3 18.583h338.744c9.71 0 16.787-9.196 14.3-18.583l-2.05-7.736c-3.038-11.471-13.419-19.46-25.286-19.46z" fill="#e7c7af"/><g><g fill="#fff"><ellipse cx="176.443" cy="346.406" rx="29.355" ry="23.377"/><ellipse cx="335.556" cy="346.406" rx="29.355" ry="23.377"/></g></g><path d="m229.851 458.721h-130.186c-11.868 0-22.248 7.989-25.288 19.46l-2.05 7.736c-2.487 9.386 4.59 18.583 14.3 18.583h154.766c-14.25-8.965-16.544-30.525-11.542-45.779z" fill="#daa985"/><path d="m190.199 80.825c3.56 33.199 31.657 59.054 65.801 59.054s62.242-25.856 65.801-59.054z" fill="#d2896f"/><path d="m336.171 110.825h-160.342c-11.922 0-21.586 9.664-21.586 21.586 0 11.922 9.664 21.586 21.586 21.586h160.342c11.922 0 21.586-9.664 21.586-21.586 0-11.922-9.665-21.586-21.586-21.586z" fill="#e7c7af"/><path d="m446.922 483.997-2.05-7.735c-3.076-11.61-12.028-20.458-23.142-23.697l2.867-8.556c9.217-27.513-8.285-55.153-34.411-60.804-14.162-47.062-26.074-121.901-27.855-154.985h5.54c13.347 0 25.723-7.215 32.299-18.83 7.783-13.745 6.001-30.948-4.433-42.807-9.042-10.276-21.302-17.016-34.608-19.257 11.463-19.109-2.232-44.002-24.958-44.002h-12.691c9.347-21.241 7.869-45.211-2.599-64.599-1.969-3.646-6.518-5.004-10.163-3.037-3.645 1.968-5.004 6.518-3.037 10.163 9.57 17.725 9.441 39.636-1.024 57.473h-101.315c-22.802-38.864 5.321-88.324 50.658-88.324 10.45 0 20.708 2.779 29.664 8.036 3.571 2.096 8.167.901 10.265-2.671 2.097-3.572.901-8.168-2.671-10.265-11.257-6.607-24.14-10.1-37.258-10.1-53.153 0-88.805 54.863-67.48 103.325h-12.691c-22.716 0-36.428 24.882-24.958 44.002-13.307 2.241-25.566 8.981-34.608 19.257-10.435 11.859-12.216 29.062-4.434 42.807 6.576 11.615 18.952 18.83 32.299 18.83h5.54c-1.781 33.083-13.693 107.923-27.855 154.985-26.153 5.657-43.619 33.318-34.411 60.804l2.867 8.556c-11.114 3.238-20.066 12.087-23.142 23.696l-2.05 7.736c-3.747 14.144 6.907 28.002 21.551 28.002h44.824c4.142 0 7.5-3.358 7.5-7.5s-3.358-7.5-7.5-7.5h-44.824c-4.789 0-8.277-4.531-7.05-9.162l2.05-7.736c2.165-8.173 9.583-13.881 18.038-13.881.101 0 .844 0 .743 0 22.848 0 330.945.004 311.927 0 8.455 0 15.872 5.708 18.038 13.881l2.05 7.736c1.226 4.628-2.26 9.162-7.05 9.162h-258.36c-4.142 0-7.5 3.358-7.5 7.5s3.358 7.5 7.5 7.5h258.358c14.633 0 25.3-13.848 21.55-28.003zm-271.093-365.672h160.342c7.767 0 14.086 6.319 14.086 14.086s-6.319 14.086-14.086 14.086h-160.342c-7.767 0-14.086-6.319-14.086-14.086s6.319-14.086 14.086-14.086zm-31.701 94.895c-18.997 0-29.148-22.472-16.604-36.727 8.385-9.53 20.475-14.996 33.169-14.996h190.614c12.694 0 24.783 5.466 33.169 14.996 12.549 14.262 2.383 36.727-16.605 36.727zm20.563 15h182.619c1.713 34.65 13.841 107.711 26.939 153.892h-236.497c13.098-46.182 25.226-119.242 26.939-153.892zm245.683 211.023-4.013 11.978h-300.723l-4.013-11.978c-6.948-20.739 8.452-42.132 30.319-42.132h248.111c21.872 0 37.266 21.398 30.319 42.132zm-91.925-134.84c-4.142 0-7.5 3.358-7.5 7.5v12c0 4.142 3.358 7.5 7.5 7.5s7.5-3.358 7.5-7.5v-12c0-4.142-3.358-7.5-7.5-7.5zm-124.898 0c-4.142 0-7.5 3.358-7.5 7.5v12c0 4.142 3.358 7.5 7.5 7.5s7.5-3.358 7.5-7.5v-12c0-4.142-3.358-7.5-7.5-7.5zm83.841 13.488c-3.124-2.721-7.861-2.396-10.582.727-2.729 3.132-6.669 4.928-10.81 4.928s-8.081-1.796-10.81-4.928c-2.722-3.123-7.459-3.447-10.582-.727-3.122 2.722-3.448 7.459-.727 10.582 5.579 6.401 13.641 10.073 22.119 10.073s16.54-3.671 22.119-10.073c2.721-3.123 2.395-7.86-.727-10.582z"/></g></svg>