<svg width="512" height="512" viewBox="0 0 512 512" fill="none" xmlns="http://www.w3.org/2000/svg">
<g clip-path="url(#clip0)">
<path d="M388.743 420.751C371.792 375.617 369.08 281.481 369.08 250.465H142.92C142.92 281.481 140.208 375.617 123.257 420.751H388.743Z" fill="#292D3E"/>
<path d="M284.865 35.421H273.103V13.07C273.103 9.994 270.609 7.5 267.533 7.5H244.467C241.391 7.5 238.897 9.994 238.897 13.07V35.421H227.135C224.059 35.421 221.565 37.915 221.565 40.991V64.057C221.565 67.133 224.059 69.627 227.135 69.627H238.897V106.188H273.103V69.627H284.865C287.941 69.627 290.435 67.133 290.435 64.057V40.99C290.434 37.914 287.941 35.421 284.865 35.421V35.421Z" fill="#33384E"/>
<path d="M137.723 183.742H374.277C376.736 172.549 380.657 157.423 384.532 144.334C388.894 129.6 379.651 114.352 364.582 111.341C326.051 103.643 279.165 102.231 255.999 102.231C232.833 102.231 185.947 103.643 147.416 111.341C132.348 114.352 123.104 129.6 127.466 144.334C131.343 157.423 135.264 172.549 137.723 183.742V183.742Z" fill="#292D3E"/>
<path d="M369.649 280.465C369.223 268.044 369.08 257.587 369.08 250.465H142.92C142.92 257.587 142.776 268.044 142.351 280.465H369.649Z" fill="#212432"/>
<path d="M374.277 183.742C376.163 175.158 378.909 164.262 381.835 153.742H130.165C133.091 164.262 135.837 175.158 137.723 183.742H374.277Z" fill="#212432"/>
<path d="M381.449 250.465H130.55C115.543 250.465 103.377 238.3 103.377 223.292V210.914C103.377 195.907 115.543 183.741 130.55 183.741H381.449C396.456 183.741 408.622 195.907 408.622 210.914V223.292C408.622 238.299 396.456 250.465 381.449 250.465Z" fill="#4D5268"/>
<path d="M130.55 183.742C115.543 183.742 103.377 195.908 103.377 210.915V223.293C103.377 238.3 115.543 250.466 130.55 250.466H234.644C215.245 234.808 212.001 201.841 217.673 183.743H130.55V183.742Z" fill="#41465B"/>
<path d="M409.761 458.721H102.239V436.427C102.239 427.769 109.258 420.75 117.916 420.75H394.085C402.743 420.75 409.762 427.769 409.762 436.427V458.721H409.761Z" fill="#4D5268"/>
<path d="M412.335 458.721H99.665C87.797 458.721 77.417 466.709 74.377 478.181L72.327 485.917C69.84 495.303 76.917 504.5 86.627 504.5H425.371C435.081 504.5 442.158 495.304 439.671 485.917L437.621 478.181C434.583 466.71 424.202 458.721 412.335 458.721V458.721Z" fill="#33384E"/>
<path d="M176.443 369.783C192.655 369.783 205.798 359.317 205.798 346.406C205.798 333.495 192.655 323.029 176.443 323.029C160.231 323.029 147.088 333.495 147.088 346.406C147.088 359.317 160.231 369.783 176.443 369.783Z" fill="#D8385E"/>
<path d="M335.556 369.783C351.768 369.783 364.911 359.317 364.911 346.406C364.911 333.495 351.768 323.029 335.556 323.029C319.344 323.029 306.201 333.495 306.201 346.406C306.201 359.317 319.344 369.783 335.556 369.783Z" fill="#D8385E"/>
<path d="M229.851 458.721H99.665C87.797 458.721 77.417 466.709 74.377 478.181L72.327 485.917C69.84 495.303 76.917 504.5 86.627 504.5H241.393C227.143 495.535 224.849 473.975 229.851 458.721V458.721Z" fill="#292D3E"/>
<path d="M318.449 304.402C314.307 304.402 310.949 307.76 310.949 311.902V323.902C310.949 328.044 314.307 331.402 318.449 331.402C322.591 331.402 325.949 328.044 325.949 323.902V311.902C325.949 307.76 322.591 304.402 318.449 304.402ZM446.922 483.997L444.872 476.262C441.393 463.132 430.398 453.535 417.261 451.591V436.428C417.261 423.648 406.864 413.251 394.084 413.251H394.056C379.208 368.125 376.973 283.705 376.638 257.965H381.448C400.567 257.965 416.121 242.411 416.121 223.293V210.915C416.121 192.552 401.769 177.486 383.694 176.323C386.003 166.796 388.891 156.025 391.722 146.462C397.307 127.597 385.514 107.875 366.05 103.986C336.961 98.174 303.706 95.992 280.601 95.187V77.127H284.863C292.07 77.127 297.933 71.264 297.933 64.057V40.991C297.933 33.784 292.07 27.921 284.863 27.921H280.601V13.07C280.601 5.863 274.738 0 267.531 0H244.465C237.259 0 231.395 5.863 231.395 13.07V27.92H227.133C219.926 27.92 214.063 33.783 214.063 40.99V64.056C214.063 71.263 219.926 77.126 227.133 77.126H231.395V95.171C220.29 95.554 207.115 96.251 193.11 97.498C188.985 97.865 185.938 101.508 186.305 105.634C186.673 109.76 190.322 112.814 194.441 112.439C256.51 106.911 321.701 110.422 363.11 118.695C373.886 120.848 380.448 131.7 377.338 142.204C374.095 153.158 370.778 165.67 368.293 176.242H143.705C141.22 165.67 137.902 153.158 134.659 142.204C131.551 131.705 138.106 120.849 148.887 118.695C152.373 117.999 156.046 117.333 159.802 116.716C163.889 116.044 166.658 112.186 165.987 108.099C165.315 104.012 161.452 101.246 157.37 101.914C153.445 102.559 149.602 103.256 145.948 103.986C126.633 107.845 114.648 127.451 120.277 146.462C123.108 156.025 125.996 166.795 128.305 176.323C110.23 177.485 95.879 192.551 95.879 210.915V223.293C95.879 242.412 111.433 257.965 130.552 257.965H135.377C135.169 276.687 134.198 303.387 131.973 329.681C128.923 365.723 124.092 394.425 117.936 413.251H117.917C105.137 413.251 94.74 423.648 94.74 436.428V451.591C81.602 453.535 70.607 463.132 67.129 476.261L65.079 483.997C61.33 498.142 71.984 512 86.628 512H344.158C348.3 512 351.658 508.642 351.658 504.5C351.658 500.358 348.3 497 344.158 497H86.628C81.839 497 78.351 492.469 79.578 487.838L81.628 480.102C83.793 471.929 91.211 466.221 99.666 466.221H412.336C420.791 466.221 428.208 471.929 430.374 480.102L432.424 487.838C433.65 492.466 430.164 497 425.374 497H380.057C375.915 497 372.557 500.358 372.557 504.5C372.557 508.642 375.915 512 380.057 512H425.374C440.005 512 450.672 498.152 446.922 483.997V483.997ZM265.603 69.627V94.808C259.201 94.711 253.374 94.702 246.397 94.802V69.627C246.397 65.485 243.039 62.127 238.897 62.127H229.065V42.92H238.897C243.039 42.92 246.397 39.562 246.397 35.42V15H265.603V35.42C265.603 39.562 268.961 42.92 273.103 42.92H282.935V62.126H273.103C268.961 62.126 265.603 65.484 265.603 69.627ZM130.551 242.965C119.703 242.965 110.878 234.14 110.878 223.293V210.915C110.878 200.068 119.703 191.243 130.551 191.243H381.449C392.297 191.243 401.122 200.068 401.122 210.915V223.293C401.122 234.14 392.297 242.965 381.449 242.965H130.551ZM150.36 257.965H361.639C361.97 283.21 364.147 365.028 378.361 413.251H133.638C147.852 365.029 150.029 283.21 150.36 257.965V257.965ZM402.261 451.221H109.739V436.428C109.739 431.919 113.407 428.251 117.916 428.251C131.944 428.251 385.97 428.254 394.085 428.251C398.594 428.251 402.262 431.919 402.262 436.428V451.221H402.261ZM193.551 304.402C189.409 304.402 186.051 307.76 186.051 311.902V323.902C186.051 328.044 189.409 331.402 193.551 331.402C197.693 331.402 201.051 328.044 201.051 323.902V311.902C201.051 307.76 197.693 304.402 193.551 304.402ZM277.392 317.892C274.27 315.17 269.532 315.494 266.81 318.618C264.08 321.75 260.14 323.546 256 323.546C251.859 323.546 247.919 321.75 245.189 318.618C242.467 315.495 237.729 315.17 234.607 317.892C231.485 320.614 231.159 325.351 233.881 328.474C239.46 334.875 247.522 338.547 255.999 338.547C264.476 338.547 272.538 334.876 278.117 328.474C280.84 325.351 280.514 320.613 277.392 317.892Z" fill="black"/>
</g>
<defs>
<clipPath id="clip0">
<rect width="512" height="512" fill="white"/>
</clipPath>
</defs>
</svg>
