<svg width="512" height="512" viewBox="0 0 512 512" fill="none" xmlns="http://www.w3.org/2000/svg">
<path d="M268.795 74.193C268.795 111.163 298.58 125.68 316.883 122.032C338.15 117.793 350.674 103.486 350.674 64.766C350.674 33.139 335.545 7.5 316.883 7.5C298.221 7.5 268.795 42.566 268.795 74.193V74.193Z" fill="#212432"/>
<path d="M290.575 81.454L304.642 48.879C309.841 36.839 303.141 22.992 290.47 19.607C246.492 7.85999 170.065 -2.10001 111.278 57.217C40.899 128.231 35.868 275.723 105.326 352.764L290.575 81.454Z" fill="#505776"/>
<path d="M378.809 458.721H71.286V436.427C71.286 427.769 78.305 420.75 86.963 420.75H363.132C371.79 420.75 378.809 427.769 378.809 436.427V458.721Z" fill="#4D5268"/>
<path d="M381.383 458.721H68.713C56.845 458.721 46.465 466.71 43.425 478.181L41.375 485.917C38.888 495.303 45.965 504.5 55.675 504.5H394.42C404.13 504.5 411.207 495.304 408.72 485.917L406.67 478.181C403.631 466.71 393.25 458.721 381.383 458.721Z" fill="#4D5268"/>
<path d="M198.899 458.721H68.713C56.845 458.721 46.465 466.709 43.425 478.181L41.375 485.917C38.888 495.303 45.965 504.5 55.675 504.5H210.441C196.19 495.535 193.897 473.975 198.899 458.721V458.721Z" fill="#292D3E"/>
<path d="M461.779 224.767C429.181 181.34 382.798 130.427 346.922 94.66C299.812 47.691 223.323 46.451 175.891 93.094C108.321 161.046 100.036 292.118 100.4 421.274L347.276 420.578C347.179 386.15 337.79 335.786 322.907 303.896C340.113 306.063 356.715 309.209 371.705 314.922C396.866 324.512 425.341 318.069 444.48 299.129C448.738 294.915 453.05 290.645 457.237 286.496C473.947 269.934 475.903 243.582 461.779 224.767Z" fill="#292D3E"/>
<path d="M223.261 290.827C221.874 337.535 231.117 386.344 252.71 420.844L347.277 420.577C347.18 386.149 337.792 335.785 322.908 303.895C289.529 299.694 253.872 299.183 223.261 290.827V290.827Z" fill="#212432"/>
<path d="M140.159 74.193C140.159 111.163 169.944 125.68 188.247 122.032C209.514 117.793 222.038 103.486 222.038 64.766C222.038 33.139 206.909 7.5 188.247 7.5C169.585 7.5 140.159 42.566 140.159 74.193V74.193Z" fill="#212432"/>
<path d="M232.271 193.496C248.501 193.496 261.658 183.018 261.658 170.093C261.658 157.168 248.501 146.69 232.271 146.69C216.041 146.69 202.884 157.168 202.884 170.093C202.884 183.018 216.041 193.496 232.271 193.496Z" fill="#D8385E"/>
<path d="M342.518 193.496C358.748 193.496 371.905 183.018 371.905 170.093C371.905 157.168 358.748 146.69 342.518 146.69C326.288 146.69 313.131 157.168 313.131 170.093C313.131 183.018 326.288 193.496 342.518 193.496Z" fill="#D8385E"/>
<path d="M421.228 260.504C421.228 245.861 410.62 244.485 397.535 244.485C384.449 244.485 373.841 245.861 373.841 260.504C373.841 275.147 384.449 287.017 397.535 287.017C410.62 287.016 421.228 275.146 421.228 260.504Z" fill="#4E5660"/>
<path d="M467.778 220.264C434.309 175.677 388.395 125.68 355.36 92.493C357.242 84.658 358.174 75.545 358.174 64.766C358.173 28.449 340.036 0 316.882 0C309.016 0 300.035 4.259 291.257 12.067C260.093 3.871 230.662 1.351 203.704 4.55C198.95 1.619 193.742 0 188.247 0C178.911 0 168.051 6.008 158.062 16.437C138.779 24.569 121.252 36.5 105.951 51.938C103.035 54.88 103.056 59.628 105.999 62.544C108.931 65.45 113.68 65.448 116.605 62.496C123.877 55.158 131.696 48.698 139.994 43.145C126.508 72.645 132.968 99.842 148.3 115.28C144.449 121.073 140.875 127.144 137.53 133.441H111.374C107.231 133.441 103.874 136.799 103.874 140.941C103.874 145.083 107.231 148.441 111.374 148.441H130.202C126.507 156.699 123.174 165.311 120.158 174.222H98.348C94.206 174.222 90.848 177.58 90.848 181.722C90.848 185.864 94.206 189.222 98.348 189.222H115.454C113.033 197.592 110.864 206.196 108.919 215.002H90.975C86.832 215.002 83.475 218.36 83.475 222.502C83.475 226.644 86.832 230.002 90.975 230.002H105.85C100.109 260.489 96.784 293.096 94.945 326.672C76.137 297.18 65.095 259.84 63.488 219.325C61.62 172.255 73.12 125.108 95.038 89.972C97.23 86.457 96.159 81.831 92.644 79.639C89.128 77.446 84.503 78.518 82.311 82.033C58.494 120.214 46.486 169.183 48.499 219.921C50.515 270.741 66.607 317.098 93.87 350.855C93.15 371.488 92.893 392.373 92.891 413.253H86.963C74.184 413.253 63.786 423.65 63.786 436.43V451.593C50.648 453.537 39.654 463.133 36.175 476.264L34.125 484C30.378 498.142 41.033 512 55.675 512H320.61C324.753 512 328.11 508.642 328.11 504.5C328.11 500.358 324.753 497 320.61 497H55.675C50.888 497 47.397 492.47 48.625 487.838L50.675 480.102C52.84 471.929 60.257 466.221 68.712 466.221H381.383C389.838 466.221 397.255 471.929 399.42 480.102L401.47 487.838C402.697 492.466 399.212 497 394.419 497H356.653C352.51 497 349.153 500.358 349.153 504.5C349.153 508.642 352.51 512 356.653 512H394.419C409.053 512 419.721 498.154 415.97 483.997L413.92 476.262C410.441 463.132 399.446 453.535 386.309 451.591V436.428C386.309 423.648 375.912 413.251 363.132 413.251H354.623C353.562 384.266 346.857 344.504 334.959 313.217C348.438 315.453 359.465 318.283 369.034 321.93C396.692 332.472 428.379 325.614 449.755 304.459C454.016 300.243 458.328 295.973 462.516 291.822C481.795 272.715 484.058 241.952 467.778 220.264ZM316.882 15C325.334 15 331.433 23.198 334.317 28.084C343.173 43.092 344.446 62.996 342.294 80.421C331.896 71.978 320.288 65.213 307.868 60.328L311.528 51.853C316.236 40.95 313.826 28.298 305.431 19.888C310.326 16.376 314.35 15 316.882 15ZM288.535 26.854C296.779 29.056 301.14 38.073 297.757 45.906L293.56 55.626C272.069 49.933 249.91 49.896 229.093 55.057C227.771 40.693 223.548 28.002 217.354 18.433C239.49 17.314 263.362 20.129 288.535 26.854ZM363.132 428.251C367.641 428.251 371.309 431.919 371.309 436.428V451.221H78.786V436.428C78.786 431.919 82.454 428.251 86.963 428.251H363.132ZM451.956 281.168C447.772 285.316 443.461 289.584 439.204 293.797C421.997 310.824 396.552 316.366 374.376 307.913C329.012 290.623 270.832 296.038 225.236 283.591C221.236 282.501 217.116 284.854 216.025 288.851C214.934 292.847 217.29 296.971 221.285 298.061C251.206 306.228 285.155 307.044 317.8 310.848C329.475 337.882 338.365 379.761 339.621 413.25H107.891C107.902 303.178 114.935 193.196 160.335 124.267C163.099 125.756 165.912 126.947 168.696 127.842C172.649 129.111 176.866 126.934 178.131 122.998C179.4 119.055 177.231 114.83 173.287 113.562C167.274 111.629 147.658 103.076 147.658 74.193C147.658 44.714 175.487 15 188.246 15C202.192 15 214.623 37.934 214.535 64.988C214.629 69.71 214.17 78.128 213.063 84.556C212.361 88.638 215.1 92.517 219.182 93.22C223.263 93.921 227.143 91.183 227.846 87.102C228.704 82.116 229.236 76.541 229.44 70.479C269.004 59.407 312.019 70.453 341.626 99.972C341.628 99.974 341.629 99.975 341.631 99.977C341.639 99.985 341.648 99.993 341.656 100.002C374.502 132.752 421.721 183.899 455.781 229.27C467.586 244.996 465.943 267.308 451.956 281.168ZM237.184 122.653C233.041 122.653 229.684 126.011 229.684 130.153V142.153C229.684 146.295 233.041 149.653 237.184 149.653C241.327 149.653 244.684 146.295 244.684 142.153V130.153C244.684 126.011 241.327 122.653 237.184 122.653ZM337.605 122.653C333.462 122.653 330.105 126.011 330.105 130.153V142.153C330.105 146.295 333.462 149.653 337.605 149.653C341.748 149.653 345.105 146.295 345.105 142.153V130.153C345.105 126.011 341.747 122.653 337.605 122.653ZM417.68 240.314C412.232 237.551 405.686 236.985 397.534 236.985C389.382 236.985 382.837 237.551 377.388 240.314C372.348 242.87 366.34 248.447 366.34 260.503C366.34 279.258 380.333 294.516 397.533 294.516C414.733 294.516 428.726 279.258 428.726 260.503C428.728 248.447 422.72 242.87 417.68 240.314ZM397.535 279.516C388.606 279.516 381.342 270.987 381.342 260.503C381.342 254.596 381.997 251.985 397.535 251.985C413.073 251.985 413.728 254.596 413.728 260.503C413.728 270.987 406.463 279.516 397.535 279.516Z" fill="black"/>
</svg>
