<svg width="512" height="512" viewBox="0 0 512 512" fill="none" xmlns="http://www.w3.org/2000/svg">
<g clip-path="url(#clip0)">
<path d="M387.247 398.411C370.487 351.314 354.6 253.084 354.6 220.72H157.399C157.399 253.084 141.512 351.315 124.752 398.411H387.247Z" fill="#3E4359"/>
<path d="M321.276 84.2887C327.124 48.2082 302.617 14.2177 266.537 8.36892C230.457 2.52009 196.467 27.0277 190.618 63.1082C184.77 99.1887 209.277 133.179 245.357 139.028C281.437 144.877 315.427 120.369 321.276 84.2887Z" fill="#212432"/>
<path d="M354.6 220.719H157.399C157.399 227.9 156.615 238.33 155.215 250.719H356.784C355.384 238.33 354.6 227.901 354.6 220.719V220.719Z" fill="#212432"/>
<path d="M367.871 220.719H144.128C133.458 220.719 123.613 214.98 118.355 205.695C112.14 194.718 113.559 181.008 121.892 171.538C131.703 160.387 145.838 153.997 160.691 153.997H351.305C366.158 153.997 380.293 160.387 390.104 171.538C398.437 181.009 399.857 194.718 393.641 205.695C388.387 214.98 378.541 220.719 367.871 220.719Z" fill="#505776"/>
<path d="M230.829 153.997H160.693C145.84 153.997 131.705 160.387 121.894 171.538C113.561 181.008 112.141 194.718 118.356 205.695C123.613 214.98 133.459 220.719 144.129 220.719H247.823C223.54 206.688 225.03 173.563 230.829 153.997V153.997Z" fill="#41465B"/>
<path d="M411.758 458.721H100.242L94.515 441.626C85.948 416.054 104.976 389.611 131.945 389.611H380.057C407.026 389.611 426.054 416.054 417.487 441.626L411.758 458.721Z" fill="#505776"/>
<path d="M412.335 458.721H99.665C87.797 458.721 77.417 466.709 74.377 478.181L72.327 485.917C69.84 495.303 76.917 504.5 86.627 504.5H425.371C435.081 504.5 442.158 495.304 439.671 485.917L437.621 478.181C434.583 466.71 424.202 458.721 412.335 458.721V458.721Z" fill="#3E4359"/>
<path d="M176.443 369.783C192.655 369.783 205.798 359.317 205.798 346.406C205.798 333.495 192.655 323.029 176.443 323.029C160.231 323.029 147.088 333.495 147.088 346.406C147.088 359.317 160.231 369.783 176.443 369.783Z" fill="#D8385E"/>
<path d="M335.556 369.783C351.768 369.783 364.911 359.317 364.911 346.406C364.911 333.495 351.768 323.029 335.556 323.029C319.344 323.029 306.201 333.495 306.201 346.406C306.201 359.317 319.344 369.783 335.556 369.783Z" fill="#D8385E"/>
<path d="M229.851 458.721H99.665C87.797 458.721 77.417 466.71 74.377 478.181L72.327 485.917C69.84 495.303 76.917 504.5 86.627 504.5H241.393C227.143 495.535 224.849 473.975 229.851 458.721V458.721Z" fill="#212432"/>
<path d="M190.199 80.825C193.759 114.024 221.856 139.879 256 139.879C290.144 139.879 318.242 114.023 321.801 80.825H190.199Z" fill="#505776"/>
<path d="M336.171 110.825H175.829C163.907 110.825 154.243 120.489 154.243 132.411C154.243 144.333 163.907 153.997 175.829 153.997H336.171C348.093 153.997 357.757 144.333 357.757 132.411C357.757 120.489 348.092 110.825 336.171 110.825V110.825Z" fill="#3E4359"/>
<path d="M446.922 483.997L444.872 476.262C441.796 464.652 432.844 455.804 421.73 452.565L424.597 444.009C433.814 416.496 416.312 388.856 390.186 383.205C376.024 336.143 364.112 261.304 362.331 228.22H367.871C381.218 228.22 393.594 221.005 400.17 209.39C407.953 195.645 406.171 178.442 395.737 166.583C386.695 156.307 374.435 149.567 361.129 147.326C372.592 128.217 358.897 103.324 336.171 103.324H323.48C332.827 82.083 331.349 58.113 320.881 38.725C318.912 35.079 314.363 33.721 310.718 35.688C307.073 37.656 305.714 42.206 307.681 45.851C317.251 63.576 317.122 85.487 306.657 103.324H205.342C182.54 64.46 210.663 15 256 15C266.45 15 276.708 17.779 285.664 23.036C289.235 25.132 293.831 23.937 295.929 20.365C298.026 16.793 296.83 12.197 293.258 10.1C282.001 3.493 269.118 0 256 0C202.847 0 167.195 54.863 188.52 103.325H175.829C153.113 103.325 139.401 128.207 150.871 147.327C137.564 149.568 125.305 156.308 116.263 166.584C105.828 178.443 104.047 195.646 111.829 209.391C118.405 221.006 130.781 228.221 144.128 228.221H149.668C147.887 261.304 135.975 336.144 121.813 383.206C95.66 388.863 78.194 416.524 87.402 444.01L90.269 452.566C79.155 455.804 70.203 464.653 67.127 476.262L65.077 483.998C61.33 498.142 71.984 512 86.628 512H131.452C135.594 512 138.952 508.642 138.952 504.5C138.952 500.358 135.594 497 131.452 497H86.628C81.839 497 78.351 492.469 79.578 487.838L81.628 480.102C83.793 471.929 91.211 466.221 99.666 466.221C99.767 466.221 100.51 466.221 100.409 466.221C123.257 466.221 431.354 466.225 412.336 466.221C420.791 466.221 428.208 471.929 430.374 480.102L432.424 487.838C433.65 492.466 430.164 497 425.374 497H167.014C162.872 497 159.514 500.358 159.514 504.5C159.514 508.642 162.872 512 167.014 512H425.372C440.005 512 450.672 498.152 446.922 483.997V483.997ZM175.829 118.325H336.171C343.938 118.325 350.257 124.644 350.257 132.411C350.257 140.178 343.938 146.497 336.171 146.497H175.829C168.062 146.497 161.743 140.178 161.743 132.411C161.743 124.644 168.062 118.325 175.829 118.325V118.325ZM144.128 213.22C125.131 213.22 114.98 190.748 127.524 176.493C135.909 166.963 147.999 161.497 160.693 161.497H351.307C364.001 161.497 376.09 166.963 384.476 176.493C397.025 190.755 386.859 213.22 367.871 213.22H144.128ZM164.691 228.22H347.31C349.023 262.87 361.151 335.931 374.249 382.112H137.752C150.85 335.93 162.978 262.87 164.691 228.22ZM410.374 439.243L406.361 451.221H105.638L101.625 439.243C94.677 418.504 110.077 397.111 131.944 397.111H380.055C401.927 397.111 417.321 418.509 410.374 439.243ZM318.449 304.403C314.307 304.403 310.949 307.761 310.949 311.903V323.903C310.949 328.045 314.307 331.403 318.449 331.403C322.591 331.403 325.949 328.045 325.949 323.903V311.903C325.949 307.761 322.591 304.403 318.449 304.403ZM193.551 304.403C189.409 304.403 186.051 307.761 186.051 311.903V323.903C186.051 328.045 189.409 331.403 193.551 331.403C197.693 331.403 201.051 328.045 201.051 323.903V311.903C201.051 307.761 197.693 304.403 193.551 304.403ZM277.392 317.891C274.268 315.17 269.531 315.495 266.81 318.618C264.081 321.75 260.141 323.546 256 323.546C251.859 323.546 247.919 321.75 245.19 318.618C242.468 315.495 237.731 315.171 234.608 317.891C231.486 320.613 231.16 325.35 233.881 328.473C239.46 334.874 247.522 338.546 256 338.546C264.478 338.546 272.54 334.875 278.119 328.473C280.84 325.35 280.514 320.613 277.392 317.891V317.891Z" fill="black"/>
</g>
<defs>
<clipPath id="clip0">
<rect width="512" height="512" fill="white"/>
</clipPath>
</defs>
</svg>
