<svg width="512" height="512" viewBox="0 0 512 512" fill="none" xmlns="http://www.w3.org/2000/svg">
<g clip-path="url(#clip0)">
<path d="M377.275 420.751L390.26 391.635C395.465 379.963 396.215 366.784 392.334 354.608C384.297 329.394 370.119 280.277 359.945 219.393H152.056C141.882 280.277 127.704 329.394 119.667 354.608C115.786 366.784 116.536 379.963 121.741 391.635L134.726 420.751H377.275Z" fill="#292D3E"/>
<path d="M380.09 120.671L394.905 88.34C399.173 79.026 401.382 68.9 401.382 58.655V27.046C401.382 16.251 392.631 7.5 381.836 7.5H313.892C303.097 7.5 294.346 16.251 294.346 27.046V47.016C294.346 55.866 287.171 63.041 278.321 63.041H233.676C224.826 63.041 217.651 55.867 217.651 47.016V27.046C217.651 16.251 208.9 7.5 198.105 7.5H130.162C119.367 7.5 110.616 16.251 110.616 27.046V58.655C110.616 68.901 112.825 79.026 117.094 88.34L131.909 120.671H380.09Z" fill="#292D3E"/>
<path d="M387.139 90.671H124.861C122.658 90.671 120.492 90.829 118.363 91.105L131.911 120.671H380.091L393.639 91.105C391.508 90.829 389.342 90.671 387.139 90.671Z" fill="#212432"/>
<path d="M387.139 175.007H124.861C113.674 175.007 104.606 165.939 104.606 154.752V140.926C104.606 129.739 113.674 120.671 124.861 120.671H387.139C398.325 120.671 407.394 129.739 407.394 140.926V154.752C407.394 165.939 398.326 175.007 387.139 175.007Z" fill="#4D5268"/>
<path d="M124.861 120.671C113.675 120.671 104.606 129.74 104.606 140.926V154.752C104.606 165.939 113.675 175.007 124.861 175.007H249.336C229.511 163.963 226.863 138.394 235.393 120.671H124.861Z" fill="#41465B"/>
<path d="M359.945 219.393H152.056C150.336 229.686 148.5 239.633 146.6 249.195C148.026 249.317 149.465 249.393 150.922 249.393H361.08C362.537 249.393 363.975 249.317 365.401 249.195C363.501 239.633 361.665 229.686 359.945 219.393Z" fill="#212432"/>
<path d="M381.583 175H130.765V199.055C130.765 210.283 139.867 219.386 151.096 219.386H361.253C372.481 219.386 381.584 210.284 381.584 199.055L381.583 175Z" fill="#505776"/>
<path d="M409.761 458.721H102.239V436.427C102.239 427.769 109.258 420.75 117.916 420.75H394.085C402.743 420.75 409.762 427.769 409.762 436.427V458.721H409.761Z" fill="#4D5268"/>
<path d="M412.509 458.714H99.8395C87.9715 458.714 77.5915 466.702 74.5515 478.174L72.5015 485.91C70.0145 495.296 77.0915 504.493 86.8015 504.493H425.545C435.255 504.493 442.332 495.297 439.845 485.91L437.795 478.174C434.757 466.703 424.377 458.714 412.509 458.714Z" fill="#505776"/>
<path d="M229.851 458.721H99.665C87.797 458.721 77.417 466.71 74.377 478.181L72.327 485.917C69.84 495.303 76.917 504.5 86.627 504.5H241.393C227.143 495.535 224.849 473.975 229.851 458.721V458.721Z" fill="#292D3E"/>
<path d="M177.623 368.279C193.595 368.279 206.542 357.968 206.542 345.249C206.542 332.53 193.595 322.219 177.623 322.219C161.651 322.219 148.704 332.53 148.704 345.249C148.704 357.968 161.651 368.279 177.623 368.279Z" fill="#D8385E"/>
<path d="M334.377 368.279C350.349 368.279 363.297 357.968 363.297 345.249C363.297 332.53 350.349 322.219 334.377 322.219C318.405 322.219 305.457 332.53 305.457 345.249C305.457 357.968 318.405 368.279 334.377 368.279Z" fill="#D8385E"/>
<path d="M303.758 327.689C307.901 327.689 311.258 324.331 311.258 320.189C311.258 316.734 314.069 313.924 317.523 313.924C320.977 313.924 323.788 316.735 323.788 320.189C323.788 324.331 327.145 327.689 331.288 327.689C335.431 327.689 338.788 324.331 338.788 320.189C338.788 308.463 329.249 298.924 317.523 298.924C305.797 298.924 296.258 308.464 296.258 320.189C296.258 324.331 299.615 327.689 303.758 327.689ZM256 350.429C263.763 350.429 271.145 347.067 276.255 341.204C278.977 338.082 278.652 333.344 275.529 330.622C272.406 327.9 267.668 328.226 264.948 331.348C262.687 333.941 259.426 335.429 256 335.429C252.574 335.429 249.312 333.942 247.052 331.348C244.33 328.226 239.593 327.902 236.47 330.622C233.348 333.344 233.023 338.082 235.744 341.204C240.855 347.067 248.237 350.429 256 350.429ZM446.923 483.997L444.873 476.261C441.393 463.131 430.398 453.535 417.261 451.591V436.428C417.261 423.648 406.864 413.251 394.084 413.251H388.831L397.108 394.69C403.078 381.305 403.919 366.262 399.478 352.33C392.174 329.415 378.737 283.27 368.66 225.834C380.331 222.524 388.908 211.779 388.908 199.062V182.445C403.389 181.528 414.892 169.462 414.892 154.753V140.926C414.892 127.144 404.793 115.681 391.608 113.536L401.722 91.465C406.472 81.099 408.881 70.06 408.881 58.655V27.046C408.882 12.133 396.749 0 381.836 0H313.893C298.98 0 286.847 12.133 286.847 27.046V47.016C286.847 51.717 283.023 55.541 278.323 55.541H233.678C228.977 55.541 225.153 51.717 225.153 47.016V27.046C225.153 12.133 213.02 0 198.107 0H174.522C170.38 0 167.022 3.358 167.022 7.5C167.022 11.642 170.38 15 174.522 15H198.107C204.749 15 210.153 20.404 210.153 27.046V47.016C210.153 59.988 220.706 70.541 233.678 70.541H278.323C291.295 70.541 301.847 59.988 301.847 47.016V27.046C301.847 20.404 307.25 15 313.893 15H381.836C388.479 15 393.882 20.404 393.882 27.046V58.654C393.882 67.887 391.932 76.823 388.086 85.215L375.277 113.17H136.724L123.914 85.215C120.068 76.822 118.118 67.885 118.118 58.654V27.046C118.118 20.404 123.522 15 130.164 15H139.027C143.169 15 146.527 11.642 146.527 7.5C146.527 3.358 143.169 0 139.027 0H130.164C115.251 0 103.118 12.133 103.118 27.046V58.654C103.118 70.058 105.527 81.096 110.277 91.464L120.391 113.535C107.205 115.68 97.106 127.143 97.106 140.925V154.752C97.106 169.461 108.609 181.528 123.091 182.444V199.061C123.091 211.778 131.668 222.523 143.339 225.833C133.262 283.269 119.825 329.414 112.521 352.329C108.08 366.26 108.922 381.303 114.891 394.688L123.169 413.249H117.916C105.136 413.249 94.739 423.646 94.739 436.426V451.589C81.602 453.533 70.606 463.129 67.127 476.26L65.078 483.995C61.33 498.142 71.984 512 86.628 512H348.032C352.175 512 355.532 508.642 355.532 504.5C355.532 500.358 352.175 497 348.032 497H86.628C81.841 497 78.35 492.47 79.578 487.838L81.627 480.103C83.792 471.93 91.21 466.222 99.665 466.222H412.335C420.79 466.222 428.207 471.93 430.373 480.103L432.423 487.838C433.648 492.466 430.163 497 425.372 497H383.869C379.727 497 376.369 500.358 376.369 504.5C376.369 508.642 379.727 512 383.869 512H425.372C432.347 512 438.786 508.83 443.04 503.303C447.293 497.776 448.709 490.739 446.923 483.997ZM124.861 167.507C117.828 167.507 112.106 161.785 112.106 154.752V140.925C112.106 133.892 117.828 128.17 124.861 128.17C125.257 128.17 132.392 128.17 131.952 128.17C132.058 128.17 392.469 128.173 387.139 128.17C394.172 128.17 399.894 133.892 399.894 140.925V154.752C399.894 161.785 394.172 167.507 387.139 167.507H124.861ZM138.091 199.062V182.507H373.909V199.062C373.909 206.137 368.153 211.893 361.079 211.893H150.921C143.847 211.893 138.091 206.137 138.091 199.062ZM126.813 356.886C134.298 333.401 148.126 285.912 158.385 226.893H353.617C363.875 285.912 377.703 333.401 385.189 356.886C388.51 367.306 387.879 378.562 383.411 388.58L372.409 413.251H139.593L128.59 388.58C124.123 378.561 123.491 367.305 126.813 356.886ZM402.261 451.221H109.739V436.428C109.739 431.919 113.407 428.251 117.916 428.251C118.425 428.251 380.372 428.255 394.085 428.251C398.594 428.251 402.262 431.919 402.262 436.428V451.221H402.261ZM180.712 327.689C184.854 327.689 188.212 324.331 188.212 320.189C188.212 316.734 191.023 313.924 194.477 313.924C197.932 313.924 200.742 316.735 200.742 320.189C200.742 324.331 204.1 327.689 208.242 327.689C212.384 327.689 215.742 324.331 215.742 320.189C215.742 308.463 206.202 298.924 194.477 298.924C182.752 298.924 173.212 308.464 173.212 320.189C173.212 324.331 176.57 327.689 180.712 327.689Z" fill="black"/>
</g>
<defs>
<clipPath id="clip0">
<rect width="512" height="512" fill="white"/>
</clipPath>
</defs>
</svg>
